Coordinates
version=1
nRows=11
nColumns=36
inDegrees=yes

Units are S.I. units (second, meters, Newtons, ...)
If the header above contains a line with 'inDegrees', this indicates whether rotational values are in degrees (yes) or radians (no).

endheader
time	pelvis_tilt	pelvis_list	pelvis_rotation	pelvis_tx	pelvis_ty	pelvis_tz	hip_flexion_r	hip_adduction_r	hip_rotation_r	knee_angle_r	knee_angle_r_beta	ankle_angle_r	subtalar_angle_r	mtp_angle_r	hip_flexion_l	hip_adduction_l	hip_rotation_l	knee_angle_l	knee_angle_l_beta	ankle_angle_l	subtalar_angle_l	mtp_angle_l	lumbar_extension	lumbar_bending	lumbar_rotation	arm_flex_r	arm_add_r	arm_rot_r	elbow_flex_r	pro_sup_r	arm_flex_l	arm_add_l	arm_rot_l	elbow_flex_l	pro_sup_l
      1.72083330	     -8.43398310	     -0.34266110	     -0.43917433	     -0.95989238	      1.30980982	     -0.05484780	      4.53448738	      0.20044113	     -6.34036480	      0.31289117	      0.00546098	      0.40980024	     -7.77835227	     -7.49999987	      8.00297404	     -1.23319485	     16.11831796	      6.65507535	      0.11615298	      4.26605147	    -11.82694721	     -7.49999987	      1.80702777	     -6.78462140	    -14.35069176	    161.39584181	    -11.22233283	    122.31608209	      4.16996551	     54.23352856	     22.55636016	    -19.49750001	     18.18731273	     28.87445750	     58.93085035
      1.72500000	     -8.63220081	     -0.39290796	     -0.15076775	     -0.95985563	      1.30942099	     -0.05533646	      4.69753993	      0.23111918	     -6.57388798	      0.32070777	      0.00559741	      0.43171199	     -7.73227449	     -7.49999987	      8.25974428	     -1.23785280	     16.43579023	      6.69743145	      0.11689223	      4.00523584	    -12.25287326	     -7.49999987	      1.93176866	     -6.58375318	    -14.57680164	    161.57233381	    -11.00630873	    121.18868890	      3.79138201	     53.66857329	     22.53494112	    -19.44959661	     17.80942130	     29.66438835	     59.25112464
      1.72916670	     -8.57168582	     -0.44171348	      0.10213647	     -0.95969836	      1.30585030	     -0.05496217	      4.58559745	      0.28250188	     -6.79500654	      0.31857444	      0.00556017	      0.41195285	     -7.76846703	     -7.49999987	      8.25349735	     -1.30216599	     16.41424368	      6.77094947	      0.11817536	      4.31551767	    -11.64732357	     -7.49999987	      1.67494145	     -6.51945385	    -14.31996290	    162.54309183	    -11.35545930	    120.40030427	      4.13487961	     53.72512390	     23.04988428	    -19.13762929	     17.53082886	     30.32045471	     59.32467148
      1.73333330	     -8.61012218	     -0.46590961	      0.29553473	     -0.95969676	      1.30590358	     -0.05532863	      4.61001464	      0.31403630	     -6.72856745	      0.31998073	      0.00558472	      0.38725512	     -7.98818839	     -7.49999987	      8.34207775	     -1.31239432	     16.69531138	      6.77590891	      0.11826192	      4.18364320	    -11.87496652	     -7.49999987	      1.57475287	     -6.36129622	    -13.55100067	    163.76946408	    -11.39124244	    119.25599708	      4.12801494	     53.60653262	     23.52529345	    -18.60124236	     17.37980389	     30.91306087	     59.47272236
      1.73750000	     -8.55177361	     -0.49627851	      0.43361457	     -0.95962735	      1.30594943	     -0.05520077	      4.52492752	      0.34723423	     -6.68013267	      0.31931917	      0.00557317	      0.34319589	     -8.22291876	     -7.49999987	      8.30765131	     -1.34166442	     16.78580617	      6.80293860	      0.11873368	      4.31347094	    -11.79796431	     -7.49999987	      1.40844434	     -6.21784365	    -12.99275519	    164.97794525	    -11.51570295	    117.71268381	      4.73941972	     53.57907894	     23.97740244	    -18.32194676	     17.33428185	     31.56370329	     59.61631759
      1.74166670	     -8.60542116	     -0.53940462	      0.48585084	     -0.95322571	      1.30575715	     -0.05135254	      4.47936824	      0.44676822	     -6.78553284	      0.32547793	      0.00568066	      0.49604356	     -8.05024363	     -7.49999987	      8.29397516	     -1.46910829	     16.87134946	      6.80399810	      0.11875217	      4.46142970	    -11.45625928	     -7.49999987	      1.69991608	     -6.08581856	    -12.76989876	    165.07921656	    -11.38456366	    108.71988636	      6.11962164	     50.88237067	     23.69012915	    -18.51836056	     17.56108445	     32.13651355	     60.71927895
      1.74583330	     -8.46354815	     -0.55335517	      0.45988717	     -0.95313216	      1.30580591	     -0.05118694	      4.22351565	      0.52205221	     -6.76059609	      0.32721657	      0.00571101	      0.57385077	     -8.08155121	     -7.49999987	      8.04580112	     -1.56964100	     16.80473102	      6.77729673	      0.11828614	      4.73234061	    -11.09011167	     -7.49999987	      1.65997060	     -5.97158480	    -11.92112212	    165.94543384	    -11.43949715	    107.15553226	      7.17899025	     51.41104686	     23.75145076	    -18.18453985	     17.31765738	     32.81063720	     60.64932089
      1.75000000	     -8.43402562	     -0.54960663	      0.42114817	     -0.95319260	      1.30583934	     -0.05141940	      4.09081338	      0.57042127	     -6.76573238	      0.32481824	      0.00566915	      0.70610325	     -8.02203281	     -7.49999987	      7.91236218	     -1.63294090	     16.79534335	      6.78770925	      0.11846788	      4.82160236	    -10.94189122	     -7.49999987	      1.83329203	     -5.88639076	    -11.29060847	    166.44530872	    -11.57263785	    105.17993902	      8.66227610	     51.75665166	     23.59024611	    -17.79908348	     17.30588714	     33.20513897	     60.63544888
      1.75416670	     -8.57167839	     -0.53558284	      0.30494396	     -0.95303602	      1.30568589	     -0.05113395	      4.17578642	      0.60241093	     -6.61296432	      0.32881489	      0.00573890	      0.77480820	     -8.12131314	     -7.49999987	      7.94231487	     -1.67791745	     16.81397712	      6.74912478	      0.11779445	      4.74123256	    -11.10814787	     -7.49999987	      2.53545592	     -6.59774571	    -11.72177707	    160.35691361	    -16.74041220	     54.70988497	     25.66310246	     89.48039539	     23.05671883	    -17.98546386	     16.05496728	     33.17112532	     62.16694374
      1.75833330	     -8.56871961	     -0.53162929	      0.25730081	     -0.95307954	      1.30575064	     -0.05131383	      4.11696031	      0.63348238	     -6.51977755	      0.32431374	      0.00566034	      0.88116720	     -8.23894900	     -7.49999987	      7.83627807	     -1.70167967	     16.89015083	      6.71585003	      0.11721370	      4.74054030	    -11.15965045	     -7.49999987	      2.79868865	     -6.64492314	    -11.66926305	    158.44894105	    -18.08475180	     49.99464918	     31.40931156	     87.49062677	     22.94689307	    -17.83644830	     16.43188630	     32.89881305	     62.01915199
      1.76250000	     -8.45509685	     -0.54406750	      0.30174405	     -0.95311020	      1.30583022	     -0.05116923	      3.93772659	      0.65720792	     -6.40668863	      0.31615661	      0.00551797	      1.21698510	     -8.00531625	     -7.49999987	      7.68349693	     -1.74726555	     16.86538488	      6.72140576	      0.11731066	      5.03340834	    -10.62387101	     -7.49999987	      2.68325533	     -6.54220289	    -11.63876347	    157.57077970	    -18.99394270	     49.10936098	     35.12343611	     85.43656100	     23.06559304	    -17.66353991	     15.82502723	     33.22658282	     61.72262700
